# xmcd CD database file
#
# Track frame offsets:
#	150
#	31097
#	59835
#	90030
#	119857
#	140262
#	170675
#	200445
#	232497
#
# Disc length: 3541 seconds
#
# Revision: 4
# Processed by: cddbd v1.5.2PL0 Copyright (c) Steve Scherf et al.
# Submitted via: CDex 1.51
#
DISCID=820dd309
DTITLE=Blaze Production Presents James Toney Jr. Project - Natural Blaze
DYEAR=2001
DGENRE=Rhythmic Soul
TTITLE0=Time For Love
TTITLE1=How Deep Is Your Love
TTITLE2=Better Days
TTITLE3=Afro-Groove
TTITLE4=Lovely Reprise
TTITLE5=Elevation
TTITLE6=The Grooves
TTITLE7=Lovely Ones
TTITLE8=Revolution Poem
EXTD=YEAR: 2001
EXTT0=
EXTT1=
EXTT2=
EXTT3=
EXTT4=
EXTT5=
EXTT6=
EXTT7=
EXTT8=
PLAYORDER=
